<?xml version="1.0" encoding="UTF-8" standalone="no"?>
<svg width="15px" height="15px" viewBox="0 0 15 15" version="1.1" xmlns="http://www.w3.org/2000/svg" xmlns:xlink="http://www.w3.org/1999/xlink">
    <!-- Generator: Sketch 39.1 (31720) - http://www.bohemiancoding.com/sketch -->
    <title>Group</title>
    <desc>Created with Sketch.</desc>
    <defs></defs>
    <g id="TeamGantt-Big-Rocks" stroke="none" stroke-width="1" fill="none" fill-rule="evenodd">
        <g id="task_list_big_rock_desktop" transform="translate(-33.000000, -154.000000)">
            <g id="Side-Panel" transform="translate(0.000000, 20.000000)">
                <g id="Group-5">
                    <g id="Li" transform="translate(1.000000, 100.000000)">
                        <g id="icn_mail" transform="translate(29.000000, 31.000000)">
                            <g id="Group" transform="translate(3.780000, 3.780000)">
                                <path d="M11.424,13.3728 L2.016,13.3728 C0.9408,13.3728 0.0672,12.4992 0.0672,11.424 L0.0672,2.016 C0.0672,0.9408 0.9408,0.0672 2.016,0.0672 L11.424,0.0672 C12.4992,0.0672 13.3728,0.9408 13.3728,2.016 L13.3728,11.424 C13.3728,12.4992 12.4992,13.3728 11.424,13.3728 Z" id="Shape" fill="#7FD1CD"></path>
                                <path d="M4.928,11.62875 C4.80928,11.62875 4.69504,11.5818937 4.611264,11.4979988 L3.398528,10.29 L0.448,10.29 C0.200704,10.29 0,10.0905262 0,9.84375 C0,9.59697375 0.200704,9.3975 0.448,9.3975 L3.584,9.3975 C3.70272,9.3975 3.81696,9.44435625 3.900736,9.52825125 L5.113472,10.73625 L8.326528,10.73625 L9.539264,9.52825125 C9.62304,9.44435625 9.736832,9.3975 9.856,9.3975 L12.992,9.3975 C13.239744,9.3975 13.44,9.59697375 13.44,9.84375 C13.44,10.0905262 13.239744,10.29 12.992,10.29 L10.041472,10.29 L8.828736,11.4979988 C8.74496,11.5818937 8.631168,11.62875 8.512,11.62875 L4.928,11.62875 Z" id="Shape" fill="#FFFFFF"></path>
                                <path d="M9.856,3.15 L3.584,3.15 C3.336704,3.15 3.136,2.95008 3.136,2.70375 C3.136,2.45742 3.336704,2.2575 3.584,2.2575 L9.856,2.2575 C10.103744,2.2575 10.304,2.45742 10.304,2.70375 C10.304,2.95008 10.103744,3.15 9.856,3.15 L9.856,3.15 Z" id="Shape" fill="#FFFFFF"></path>
                                <path d="M9.856,5.34064125 L3.584,5.34064125 C3.336704,5.34064125 3.136,5.14072125 3.136,4.89439125 C3.136,4.64806125 3.336704,4.44814125 3.584,4.44814125 L9.856,4.44814125 C10.103744,4.44814125 10.304,4.64806125 10.304,4.89439125 C10.304,5.14072125 10.103744,5.34064125 9.856,5.34064125 L9.856,5.34064125 Z" id="Shape" fill="#FFFFFF"></path>
                                <path d="M9.856,7.6125 L3.584,7.6125 C3.336704,7.6125 3.136,7.41302625 3.136,7.16625 C3.136,6.91992 3.336704,6.72 3.584,6.72 L9.856,6.72 C10.103744,6.72 10.304,6.91992 10.304,7.16625 C10.304,7.41302625 10.103744,7.6125 9.856,7.6125 L9.856,7.6125 Z" id="Shape" fill="#FFFFFF"></path>
                            </g>
                        </g>
                    </g>
                </g>
            </g>
        </g>
    </g>
</svg>