<?xml version="1.0" encoding="UTF-8" standalone="no"?>
<svg width="155px" height="26px" viewBox="0 0 155 26" version="1.1" xmlns="http://www.w3.org/2000/svg" xmlns:xlink="http://www.w3.org/1999/xlink">
    <!-- Generator: Sketch 39.1 (31720) - http://www.bohemiancoding.com/sketch -->
    <title>Page 1</title>
    <desc>Created with Sketch.</desc>
    <defs>
        <polygon id="path-1" points="1.24004261e-20 0.237491889 1.24004261e-20 5.1189649 25.9348411 5.1189649 25.9348411 0.237491889 0 0.237491889"></polygon>
        <polygon id="path-3" points="9.64279827 0.140935542 0.210035943 0.140935542 0.210035943 19.3157526 9.64279827 19.3157526 9.64279827 0.140935542"></polygon>
        <polygon id="path-5" points="9.57170986 19.3157526 9.57170986 0.140935542 0.13699687 0.140935542 0.13699687 19.3157526 9.57170986 19.3157526"></polygon>
    </defs>
    <g id="Symbols" stroke="none" stroke-width="1" fill="none" fill-rule="evenodd">
        <g id="Header_white" transform="translate(-35.000000, -22.000000)">
            <g id="Header">
                <g id="Page-1" transform="translate(35.000000, 22.000000)">
                    <path d="M31.6511722,15.4730533 L31.6511722,7.76643072 L30.413877,7.76643072 C30.301562,7.76643072 30.2102918,7.67151981 30.2102918,7.55419276 L30.2102918,4.58429218 C30.2102918,4.46696513 30.301562,4.37181575 30.413877,4.37181575 L31.6511722,4.37181575 L31.6511722,0.547478542 C31.6511722,0.430151491 31.7424425,0.335002115 31.8547575,0.335002115 L35.2022482,0.335002115 C35.314792,0.335002115 35.4060622,0.430151491 35.4060622,0.547478542 L35.4060622,4.37181575 L37.955453,4.37181575 C38.067768,4.37181575 38.1590382,4.46696513 38.1590382,4.58429218 L38.1590382,7.55419276 C38.1590382,7.67151981 38.067768,7.76643072 37.955453,7.76643072 L35.4060622,7.76643072 L35.4060622,11.3165279 C35.4145259,14.6484253 35.1667923,15.9950632 36.5111413,16.1395758 C37.1285308,16.2058704 37.4352812,16.0444265 38.0652517,15.7873562 C38.1636132,15.7472933 38.2766144,15.7768636 38.3294551,15.8722514 L39.6211922,18.2025765 C39.6726603,18.2953412 39.6536743,18.4162452 39.5701815,18.4787243 C38.7212995,19.1159151 37.1390532,19.5098669 35.6700368,19.5098669 C33.0593417,19.5098669 31.6511722,18.1031346 31.6511722,15.4730533" id="Fill-1" fill="#323535"></path>
                    <path d="M46.4109437,7.09354101 C44.0935029,7.09354101 43.0961639,8.89804058 42.9200283,10.3658211 L49.9018591,10.3658211 C49.8140201,8.95908881 48.8752404,7.09354101 46.4109437,7.09354101 M39.0772993,11.7420292 C39.0772993,7.46054575 42.0985961,4.00488256 46.4109437,4.00488256 C50.6352235,4.00488256 53.510122,7.30768672 53.510122,12.1395581 L53.510122,12.7836645 C53.510122,12.9007531 53.4188517,12.9959024 53.306308,12.9959024 L42.9788164,12.9959024 C43.2135113,14.8612118 44.6509605,16.4210415 47.0562404,16.4210415 C48.1869392,16.4210415 49.7323572,15.9345635 50.6690782,15.114228 C50.7630934,15.0317175 50.9019431,15.0467411 50.9710249,15.1523832 L52.3798806,17.3031406 C52.4386687,17.3928052 52.4258589,17.5163325 52.3467122,17.5869195 C50.933739,18.8503315 48.775964,19.5099384 46.6456386,19.5099384 C42.3335197,19.5099384 39.0772993,16.4820897 39.0772993,11.7420292" id="Fill-3" fill="#323535"></path>
                    <path d="M63.4920676,15.5180525 L63.4920676,13.8377956 C63.4920676,13.7879554 63.4767415,13.7383537 63.4467756,13.6994832 C62.8197787,12.8836786 61.6737538,12.4761341 60.5000504,12.4761341 C59.0333216,12.4761341 57.8305673,13.2711918 57.8305673,14.7084481 C57.8305673,16.0846563 59.0333216,16.879714 60.5000504,16.879714 C61.6737538,16.879714 62.8197787,16.4719309 63.4465468,15.6563649 C63.4765127,15.6174943 63.4920676,15.5681311 63.4920676,15.5180525 M63.4920676,18.9305527 L63.4920676,17.6137235 C62.524237,18.80631 60.8518641,19.5097954 59.0040419,19.5097954 C56.7451604,19.5097954 54.0756773,17.9194415 54.0756773,14.6168758 C54.0756773,11.1609741 56.7451604,9.84605269 59.0040419,9.84605269 C60.8813725,9.84605269 62.5532879,10.4880129 63.4920676,11.6503138 L63.4920676,9.66243109 C63.4920676,8.1641265 62.2600336,7.1854472 60.382703,7.1854472 C58.9356464,7.1854472 57.5944999,7.70817259 56.4338351,8.75362339 C56.3361599,8.84161867 56.1867878,8.81824865 56.1234248,8.70116007 L54.922043,6.48363112 C54.8735485,6.39420502 54.8923058,6.27926266 54.9675637,6.21296811 C56.6792812,4.70297851 58.853526,4.00473948 61.0279996,4.00473948 C64.2549404,4.00473948 67.2174492,5.35042351 67.2174492,9.60138287 L67.2174492,18.9305527 C67.2174492,19.0476412 67.1264077,19.1427906 67.0138639,19.1427906 L63.6958816,19.1427906 C63.5833378,19.1427906 63.4920676,19.0476412 63.4920676,18.9305527" id="Fill-5" fill="#323535"></path>
                    <path d="M86.6506919,19.1427906 C86.5381482,19.1427906 86.4468779,19.0476412 86.4468779,18.9305527 L86.4468779,9.81529011 C86.4468779,8.43932043 85.8601406,7.46064113 84.3348524,7.46064113 C83.0456315,7.46064113 81.9803545,8.33558615 81.4395954,9.11705108 C81.4139757,9.15401387 81.4013946,9.19789228 81.4013946,9.24343997 L81.4013946,18.9305527 C81.4013946,19.0476412 81.3103531,19.1427906 81.1978093,19.1427906 L77.8503186,19.1427906 C77.7377748,19.1427906 77.6467333,19.0476412 77.6467333,18.9305527 L77.6467333,9.81529011 C77.6467333,8.43932043 77.0597673,7.46064113 75.534479,7.46064113 C74.2727079,7.46064113 73.2076596,8.3367785 72.6396796,9.14733672 C72.6136024,9.18453798 72.6007925,9.22865486 72.6007925,9.27491796 L72.6007925,18.9305527 C72.6007925,19.0476412 72.5095223,19.1427906 72.3969785,19.1427906 L69.0789962,19.1427906 C68.9664524,19.1427906 68.8754109,19.0476412 68.8754109,18.9305527 L68.8754109,4.58422064 C68.8754109,4.46689359 68.9664524,4.37198268 69.0789962,4.37198268 L72.3969785,4.37198268 C72.5095223,4.37198268 72.6007925,4.46689359 72.6007925,4.58422064 L72.6007925,6.2985787 C73.1875298,5.4117102 75.0650892,4.00473948 77.2356741,4.00473948 C79.31842,4.00473948 80.6387505,5.01394289 81.1666997,6.69610755 C81.9879032,5.35066198 83.8652338,4.00473948 86.0365049,4.00473948 C88.6469713,4.00473948 90.2017679,5.44223431 90.2017679,8.46960607 L90.2017679,18.9305527 C90.2017679,19.0476412 90.1107264,19.1427906 89.9981827,19.1427906 L86.6506919,19.1427906 Z" id="Fill-7" fill="#323535"></path>
                    <g id="Group-11" transform="translate(0.000000, 0.097534)">
                        <mask id="mask-2" fill="white">
                            <use xlink:href="#path-1"></use>
                        </mask>
                        <g id="Clip-10"></g>
                        <path d="M25.7275959,5.1189649 L0.207153725,5.1189649 C0.0932374758,5.1189649 -9.14989949e-05,5.0216693 -9.14989949e-05,4.90291143 L-9.14989949e-05,0.45354536 C-9.14989949e-05,0.334787492 0.0932374758,0.237491889 0.207153725,0.237491889 L25.7275959,0.237491889 C25.8415121,0.237491889 25.9348411,0.334787492 25.9348411,0.45354536 L25.9348411,4.90291143 C25.9348411,5.0216693 25.8415121,5.1189649 25.7275959,5.1189649" id="Fill-9" fill="#62BDD5" mask="url(#mask-2)"></path>
                    </g>
                    <path d="M25.732148,12.2240001 L6.68640343,12.2240001 C6.5750034,12.2240001 6.48373315,12.1288508 6.48373315,12.0127161 L6.48373315,7.51851771 C6.48373315,7.40238301 6.5750034,7.30723363 6.68640343,7.30723363 L25.732148,7.30723363 C25.843548,7.30723363 25.9348182,7.40238301 25.9348182,7.51851771 L25.9348182,12.0127161 C25.9348182,12.1288508 25.843548,12.2240001 25.732148,12.2240001" id="Fill-12" fill="#A2BF55"></path>
                    <path d="M25.7406116,19.1573611 L13.1615586,19.1573611 C13.0547335,19.1573611 12.9673519,19.0662657 12.9673519,18.9549004 L12.9673519,14.5558514 C12.9673519,14.4444861 13.0547335,14.3533907 13.1615586,14.3533907 L25.7406116,14.3533907 C25.8474367,14.3533907 25.9348182,14.4444861 25.9348182,14.5558514 L25.9348182,18.9549004 C25.9348182,19.0662657 25.8474367,19.1573611 25.7406116,19.1573611" id="Fill-14" fill="#B86FD7"></path>
                    <path d="M102.35407,13.842875 L102.35407,9.21155659 C102.35407,9.1667243 102.341946,9.12284589 102.31747,9.0858831 C101.685898,8.1370125 100.364882,7.46071267 99.1566373,7.46071267 C97.044383,7.46071267 95.5778829,8.98954138 95.5778829,11.527812 C95.5778829,14.0660825 97.044383,15.5953882 99.1566373,15.5953882 C100.363738,15.5953882 101.683611,14.8907105 102.315869,13.9704562 C102.341489,13.933255 102.35407,13.8886611 102.35407,13.842875 M92.4447285,22.7773776 L93.885609,20.3530955 C93.955377,20.2355299 94.110239,20.2216987 94.2040255,20.3197097 C95.3228294,21.4889262 96.7561612,21.9563267 98.4527813,21.9563267 C100.241815,21.9563267 102.35407,21.1305064 102.35407,18.2254696 L102.35407,16.7269265 C101.239383,18.194707 99.7138662,19.0510514 97.9833915,19.0510514 C94.4336879,19.0510514 91.7346963,16.4517326 91.7346963,11.527812 C91.7346963,6.69594062 94.4044083,4.00481102 97.9833915,4.00481102 C99.685044,4.00481102 101.210332,4.76958307 102.35407,6.26812613 L102.35407,4.58429218 C102.35407,4.46696513 102.44534,4.37181575 102.557884,4.37181575 L105.905146,4.37181575 C106.017689,4.37181575 106.10896,4.46696513 106.10896,4.58429218 L106.10896,18.1336588 C106.10896,23.7605878 101.943468,25.1367959 98.4527813,25.1367959 C96.0799836,25.1367959 94.2362789,24.5849772 92.4877331,23.0566255 C92.4097302,22.9884232 92.3909729,22.8675191 92.4447285,22.7773776" id="Fill-16" fill="#62BDD5"></path>
                    <path d="M116.680914,15.5180525 L116.680914,13.8377956 C116.680914,13.7879554 116.665359,13.7383537 116.635622,13.6994832 C116.008625,12.8836786 114.862371,12.4761341 113.688668,12.4761341 C112.222168,12.4761341 111.019185,13.2711918 111.019185,14.7084481 C111.019185,16.0846563 112.222168,16.879714 113.688668,16.879714 C114.862371,16.879714 116.008625,16.4719309 116.635393,15.6563649 C116.665359,15.6174943 116.680914,15.5681311 116.680914,15.5180525 M116.680914,18.9305527 L116.680914,17.6137235 C115.713083,18.80631 114.04071,19.5097954 112.192888,19.5097954 C109.933778,19.5097954 107.264295,17.9194415 107.264295,14.6168758 C107.264295,11.1609741 109.933778,9.84605269 112.192888,9.84605269 C114.070219,9.84605269 115.742363,10.4880129 116.680914,11.6503138 L116.680914,9.66243109 C116.680914,8.1641265 115.44888,7.1854472 113.57132,7.1854472 C112.124492,7.1854472 110.783346,7.70817259 109.622681,8.75362339 C109.525006,8.84161867 109.375634,8.81824865 109.312271,8.70116007 L108.110889,6.48363112 C108.062623,6.39420502 108.081381,6.27926266 108.15641,6.21296811 C109.868127,4.70297851 112.042601,4.00497795 114.217075,4.00497795 C117.443558,4.00497795 120.406753,5.35042351 120.406753,9.60138287 L120.406753,18.9305527 C120.406753,19.0476412 120.315483,19.1427906 120.202939,19.1427906 L116.884499,19.1427906 C116.772184,19.1427906 116.680914,19.0476412 116.680914,18.9305527" id="Fill-18" fill="#62BDD5"></path>
                    <path d="M131.831272,19.1427906 C131.718728,19.1427906 131.627458,19.0476412 131.627458,18.9305527 L131.627458,10.212819 C131.627458,8.1641265 130.600839,7.46064113 129.016534,7.46064113 C127.581829,7.46064113 126.455706,8.28002273 125.830767,9.14614437 C125.803546,9.18382257 125.79005,9.22960874 125.79005,9.27682572 L125.79005,18.9305527 C125.79005,19.0476412 125.69878,19.1427906 125.586236,19.1427906 L122.267797,19.1427906 C122.155253,19.1427906 122.064211,19.0476412 122.064211,18.9305527 L122.064211,4.58422064 C122.064211,4.46689359 122.155253,4.37198268 122.267797,4.37198268 L125.586236,4.37198268 C125.69878,4.37198268 125.79005,4.46689359 125.79005,4.58422064 L125.79005,6.2985787 C126.699093,5.16704038 128.430025,4.00473948 130.747466,4.00473948 C133.856602,4.00473948 135.353068,5.83976316 135.353068,8.7142759 L135.353068,18.9305527 C135.353068,19.0476412 135.261798,19.1427906 135.149254,19.1427906 L131.831272,19.1427906 Z" id="Fill-20" fill="#62BDD5"></path>
                    <g id="Group-24" transform="translate(135.876007, 0.097534)">
                        <mask id="mask-4" fill="white">
                            <use xlink:href="#path-3"></use>
                        </mask>
                        <g id="Clip-23"></g>
                        <path d="M1.64428269,15.278939 L1.64428269,7.57231645 L0.413849954,7.57231645 C0.30130619,7.57231645 0.210035943,7.47740555 0.210035943,7.3600785 L0.210035943,4.39017791 C0.210035943,4.27285086 0.30130619,4.17770149 0.413849954,4.17770149 L1.64428269,4.17770149 L1.64428269,0.353364275 C1.64428269,0.236037225 1.73555294,0.140887848 1.8480967,0.140887848 L5.19535868,0.140887848 C5.30790245,0.140887848 5.39917269,0.236037225 5.39917269,0.353364275 L5.39917269,4.17770149 L7.94856344,4.17770149 C8.06087846,4.17770149 8.1521487,4.27285086 8.1521487,4.39017791 L8.1521487,7.3600785 C8.1521487,7.47740555 8.06087846,7.57231645 7.94856344,7.57231645 L5.39917269,7.57231645 L5.39917269,11.1865619 C5.41449877,14.4070941 5.15990282,15.800949 6.5042518,15.9454616 C7.12164127,16.0117561 7.42839165,15.8503122 8.05836223,15.5932419 C8.15672365,15.5531791 8.26972491,15.5827493 8.32256558,15.6781371 L9.61430264,18.0084622 C9.66577083,18.1012269 9.64678479,18.222131 9.56329195,18.28461 C8.71441003,18.9218008 7.13216366,19.3157526 5.66314729,19.3157526 C3.05245222,19.3157526 1.64428269,17.9090204 1.64428269,15.278939" id="Fill-22" fill="#62BDD5" mask="url(#mask-4)"></path>
                    </g>
                    <g id="Group-27" transform="translate(144.797159, 0.097534)">
                        <mask id="mask-6" fill="white">
                            <use xlink:href="#path-5"></use>
                        </mask>
                        <g id="Clip-26"></g>
                        <path d="M1.57330234,15.278939 L1.57330234,7.57231645 L0.340810881,7.57231645 C0.228267118,7.57231645 0.13699687,7.47740555 0.13699687,7.3600785 L0.13699687,4.39017791 C0.13699687,4.27285086 0.228267118,4.17770149 0.340810881,4.17770149 L1.57330234,4.17770149 L1.57330234,0.353364275 C1.57330234,0.236037225 1.66457259,0.140887848 1.77711635,0.140887848 L5.12437834,0.140887848 C5.2369221,0.140887848 5.32819235,0.236037225 5.32819235,0.353364275 L5.32819235,4.17770149 L7.87758309,4.17770149 C7.98989811,4.17770149 8.08116836,4.27285086 8.08116836,4.39017791 L8.08116836,7.3600785 C8.08116836,7.47740555 7.98989811,7.57231645 7.87758309,7.57231645 L5.32819235,7.57231645 L5.32819235,11.1865619 C5.34351843,14.4070941 5.08892248,15.800949 6.43327146,15.9454616 C7.05066093,16.0117561 7.35741131,15.8503122 7.98738189,15.5932419 C8.08574331,15.5531791 8.19874457,15.5827493 8.25158524,15.6781371 L9.5433223,18.0084622 C9.59479048,18.1012269 9.57580444,18.222131 9.49231161,18.28461 C8.64342968,18.9218008 7.06118331,19.3157526 5.59216695,19.3157526 C2.98147188,19.3157526 1.57330234,17.9090204 1.57330234,15.278939" id="Fill-25" fill="#62BDD5" mask="url(#mask-6)"></path>
                    </g>
                </g>
            </g>
        </g>
    </g>
</svg>
