<?xml version="1.0" encoding="UTF-8" standalone="no"?>
<svg width="115px" height="79px" viewBox="0 0 115 79" version="1.1" xmlns="http://www.w3.org/2000/svg" xmlns:xlink="http://www.w3.org/1999/xlink">
    <!-- Generator: Sketch 39.1 (31720) - http://www.bohemiancoding.com/sketch -->
    <title>Group</title>
    <desc>Created with Sketch.</desc>
    <defs></defs>
    <g id="Page-1" stroke="none" stroke-width="1" fill="none" fill-rule="evenodd">
        <g id="TeamGantt-Logo" transform="translate(0.000000, -1.000000)">
            <g id="Group">
                <g transform="translate(0.000000, 1.000000)" id="Shape">
                    <path d="M113.2,20.5 L1.7,20.5 C1.2,20.5 0.8,20.1 0.8,19.6 L0.8,0.9 C0.8,0.4 1.2,0 1.7,0 L113.3,0 C113.8,0 114.2,0.4 114.2,0.9 L114.2,19.6 C114.1,20.1 113.7,20.5 113.2,20.5 L113.2,20.5 Z" fill="#62BDD5"></path>
                    <path d="M113.2,49.9 L30,49.9 C29.5,49.9 29.1,49.5 29.1,49 L29.1,30.1 C29.1,29.6 29.5,29.2 30,29.2 L113.3,29.2 C113.8,29.2 114.2,29.6 114.2,30.1 L114.2,49 C114.1,49.5 113.7,49.9 113.2,49.9 L113.2,49.9 Z" fill="#A2BF55"></path>
                    <path d="M113.3,78.9 L58.3,78.9 C57.8,78.9 57.5,78.5 57.5,78.1 L57.5,59.6 C57.5,59.1 57.9,58.8 58.3,58.8 L113.3,58.8 C113.8,58.8 114.1,59.2 114.1,59.6 L114.1,78 C114.1,78.5 113.7,78.9 113.3,78.9 L113.3,78.9 Z" fill="#B86FD7"></path>
                </g>
            </g>
        </g>
    </g>
</svg>